<svg t="1685089530870" class="icon" viewBox="0 0 1024 1024" version="1.1" xmlns="http://www.w3.org/2000/svg" p-id="6256" width="200" height="200"><path d="M684.8 524.8l38.4-44.8c19.2 6.4 38.4 12.8 57.6 12.8 25.6 0 51.2 0 76.8-6.4 32-6.4 64-25.6 89.6-44.8 25.6-25.6 44.8-51.2 57.6-83.2 6.4-12.8 0-25.6-12.8-32h-12.8l-64 19.2-51.2 12.8-38.4-38.4-38.4-38.4 12.8-51.2 12.8-51.2 51.2-12.8 64-19.2c12.8-6.4 19.2-19.2 19.2-32 0-6.4-6.4-6.4-6.4-12.8-25.6-19.2-57.6-38.4-89.6-44.8-32-6.4-64-6.4-102.4 0-57.6 25.6-108.8 64-134.4 115.2-25.6 44.8-38.4 108.8-19.2 166.4l-51.2 51.2-134.4-140.8c6.4-6.4 6.4-12.8 12.8-19.2 0-19.2 6.4-32 6.4-38.4 12.8-19.2 19.2-25.6 32-32 12.8-6.4 32-6.4 57.6-6.4 6.4 0 12.8 0 19.2-6.4 6.4-6.4 6.4-25.6 0-32-38.4-38.4-76.8-57.6-115.2-57.6-38.4-6.4-76.8 6.4-115.2 38.4-6.4 0-12.8 6.4-19.2 12.8-6.4 0-6.4 6.4-12.8 6.4l-12.8-12.8c-6.4-6.4-25.6-6.4-32 0L121.6 204.8c-6.4 6.4-6.4 25.6 0 32l12.8 12.8V256c-6.4 6.4-6.4 12.8-12.8 19.2 0 0-6.4 0-6.4 6.4h-19.2c-6.4 0-12.8 0-19.2 6.4l-51.2 51.2c-6.4 12.8-6.4 25.6 0 32l57.6 57.6 64 64c6.4 6.4 25.6 6.4 32 0l51.2-51.2c6.4-6.4 6.4-12.8 6.4-19.2v-19.2c0-6.4 6.4-6.4 6.4-12.8 6.4 0 12.8-6.4 19.2-6.4h6.4l140.8 140.8-294.4 294.4c-6.4 6.4-6.4 25.6 0 32l102.4 102.4c12.8 6.4 25.6 6.4 38.4 0l294.4-294.4 300.8 300.8c6.4 6.4 25.6 6.4 32 0l102.4-102.4c6.4-6.4 6.4-25.6 0-32l-300.8-300.8zM288 339.2c-6.4-6.4-19.2-6.4-32 0 0 0-6.4 6.4-12.8 6.4s-12.8 6.4-19.2 6.4c-6.4 0-6.4 6.4-6.4 6.4-12.8 12.8-19.2 25.6-19.2 32-6.4 6.4-6.4 19.2-6.4 25.6l-25.6 25.6-44.8-38.4-51.2-51.2 25.6-25.6c12.8 0 19.2 0 25.6-6.4 12.8 0 25.6-6.4 32-19.2l6.4-6.4c0-6.4 6.4-12.8 6.4-19.2 6.4-6.4 6.4-12.8 12.8-19.2 12.8-6.4 12.8-19.2 0-25.6l-6.4-6.4 70.4-70.4 6.4 6.4c6.4 6.4 19.2 6.4 32 0 6.4-6.4 19.2-12.8 25.6-12.8 6.4 0 12.8-6.4 19.2-6.4 6.4 0 6.4-6.4 6.4-6.4 25.6-25.6 51.2-32 76.8-32 12.8 0 25.6 6.4 38.4 12.8h-6.4c-19.2 12.8-38.4 32-51.2 57.6v6.4c0 6.4-6.4 19.2-12.8 32-6.4 6.4-12.8 19.2-19.2 25.6-6.4 6.4-6.4 19.2 0 32L512 422.4 441.6 492.8 288 339.2z m-51.2 563.2L166.4 832l294.4-294.4 102.4-102.4L640 364.8c6.4-6.4 6.4-12.8 6.4-25.6v-12.8c-12.8-44.8-6.4-89.6 19.2-128 19.2-38.4 57.6-64 102.4-76.8 25.6-6.4 51.2-6.4 76.8 0 6.4 0 19.2 6.4 25.6 6.4h-6.4l-64 19.2c-6.4 0-12.8 6.4-19.2 19.2l-19.2 64-19.2 64c0 6.4 0 19.2 6.4 19.2l44.8 44.8 44.8 44.8c6.4 6.4 12.8 12.8 25.6 6.4l64-19.2h6.4l-19.2 19.2c-19.2 12.8-38.4 25.6-70.4 38.4-19.2 0-38.4 6.4-57.6 0-19.2 0-38.4-6.4-57.6-12.8-6.4-6.4-19.2-6.4-25.6 6.4 0-6.4-467.2 460.8-467.2 460.8z m627.2 6.4L582.4 627.2l70.4-70.4 281.6 281.6-70.4 70.4z" p-id="6257"></path><path d="M864 979.2c-6.4 0-12.8 0-19.2-6.4l-294.4-294.4L262.4 960c-6.4 6.4-12.8 6.4-19.2 6.4-6.4 0-19.2-6.4-25.6-6.4l-102.4-102.4c-6.4-6.4-6.4-12.8-6.4-19.2 0-6.4 6.4-19.2 6.4-25.6l288-288-128-128c-12.8 0-19.2 6.4-25.6 6.4V422.4c0 12.8 0 19.2-6.4 25.6l-57.6 51.2c-12.8 12.8-32 12.8-44.8 0l-121.6-128c-12.8-12.8-12.8-32 0-44.8l51.2-51.2c6.4-6.4 12.8-12.8 25.6-6.4h25.6c0-6.4 6.4-6.4 6.4-12.8v-6.4l-12.8-6.4c-6.4-6.4-6.4-12.8-6.4-19.2 0-6.4 6.4-19.2 6.4-19.2l102.4-102.4c12.8-12.8 32-12.8 44.8 0l6.4 6.4h6.4c6.4-6.4 12.8-6.4 19.2-6.4 38.4-32 76.8-44.8 115.2-38.4 44.8 0 83.2 25.6 121.6 57.6 12.8 12.8 12.8 32 0 44.8 6.4-6.4-6.4-6.4-12.8-6.4-19.2 0-38.4 0-51.2 6.4-12.8 6.4-19.2 12.8-25.6 25.6-6.4 12.8-12.8 25.6-12.8 38.4-6.4 6.4-6.4 12.8-12.8 19.2l128 128 38.4-38.4c-12.8-57.6 0-121.6 25.6-172.8 32-51.2 76.8-89.6 134.4-102.4 32-6.4 70.4-12.8 102.4 0 32 6.4 70.4 25.6 96 44.8 6.4 6.4 6.4 12.8 12.8 12.8 6.4 19.2-6.4 38.4-25.6 38.4l-102.4 32-25.6 96 70.4 70.4 102.4-38.4h19.2c19.2 6.4 25.6 25.6 19.2 38.4-12.8 32-32 64-57.6 83.2-25.6 25.6-57.6 38.4-89.6 51.2-25.6 6.4-51.2 6.4-76.8 6.4-19.2 0-38.4-6.4-57.6-12.8l-32 32 294.4 294.4c6.4 6.4 6.4 12.8 6.4 25.6 0 6.4-6.4 19.2-6.4 19.2L889.6 960c-12.8 12.8-19.2 19.2-25.6 19.2z m-320-326.4l307.2 307.2c6.4 6.4 19.2 6.4 19.2 0l102.4-102.4s6.4-6.4 6.4-12.8 0-6.4-6.4-12.8l-307.2-307.2 51.2-51.2h6.4c19.2 6.4 38.4 12.8 57.6 12.8 25.6 0 51.2 0 76.8-6.4 32-6.4 57.6-25.6 83.2-44.8 25.6-19.2 44.8-51.2 57.6-76.8 0-6.4 0-19.2-6.4-19.2h-12.8l-121.6 32-83.2-83.2 32-108.8 115.2-32c6.4 0 12.8-12.8 12.8-19.2 0 0 0-6.4-6.4-6.4-25.6-19.2-57.6-32-89.6-44.8-32-6.4-64-6.4-96 0-51.2 12.8-102.4 51.2-128 96-19.2 51.2-25.6 108.8-12.8 160l6.4 6.4-6.4 6.4-57.6 51.2-147.2-147.2v-6.4c6.4-6.4 6.4-12.8 12.8-19.2 6.4-12.8 6.4-25.6 12.8-38.4 6.4-12.8 19.2-25.6 32-32 12.8-6.4 32-6.4 57.6-6.4 6.4 0 6.4 0 12.8-6.4s6.4-12.8 0-19.2c-32-38.4-64-57.6-102.4-57.6-38.4 0-76.8 12.8-108.8 38.4h-6.4c-6.4 0-12.8 6.4-12.8 6.4h-6.4c-6.4 0-6.4 6.4-12.8 6.4h-6.4v6.4L256 108.8c-6.4-6.4-12.8-6.4-19.2 0L128 211.2s-6.4 6.4-6.4 12.8 0 6.4 6.4 12.8l19.2 19.2-12.8 6.4c0 6.4-6.4 6.4-6.4 12.8 0 0-6.4 6.4-12.8 6.4h-25.6c-6.4 0-6.4 0-12.8 6.4l-44.8 51.2c-6.4 6.4-6.4 19.2 0 19.2l121.6 128c6.4 6.4 12.8 6.4 19.2 0l51.2-51.2s6.4-6.4 6.4-12.8v-19.2c0-6.4 0-6.4 6.4-6.4v-6.4c12.8 0 12.8-6.4 19.2-6.4l19.2-6.4 147.2 147.2-300.8 300.8s-6.4 6.4-6.4 12.8 0 6.4 6.4 12.8l102.4 102.4s6.4 6.4 12.8 6.4 6.4 0 12.8-6.4l294.4-300.8z m320 268.8L569.6 627.2l83.2-83.2 6.4 6.4 288 288-83.2 83.2zM588.8 627.2l275.2 268.8 57.6-57.6-275.2-275.2-57.6 64z m-352 288L153.6 832l6.4-6.4 473.6-467.2c0-6.4 6.4-12.8 0-19.2v-12.8c-12.8-44.8-6.4-96 12.8-134.4 25.6-38.4 64-70.4 108.8-83.2 25.6-6.4 57.6-6.4 83.2 0 6.4 0 19.2 6.4 25.6 6.4l19.2 6.4-96 25.6c-6.4 0-6.4 6.4-12.8 12.8l-32 128c0 6.4 0 12.8 6.4 12.8l96 96c6.4 6.4 12.8 6.4 12.8 6.4l102.4-25.6-12.8 19.2-19.2 19.2c-19.2 19.2-44.8 32-70.4 38.4-19.2 6.4-38.4 6.4-64 6.4-19.2 0-38.4-6.4-57.6-19.2-6.4-6.4-12.8 0-19.2 0l-480 473.6zM179.2 832l57.6 57.6 460.8-460.8c12.8-12.8 25.6-12.8 38.4-6.4 19.2 6.4 38.4 12.8 51.2 12.8 19.2 0 38.4 0 57.6-6.4 25.6-6.4 44.8-19.2 64-32l-44.8 12.8c-12.8 6.4-25.6 0-32-12.8l-89.6-89.6c-6.4-6.4-12.8-19.2-6.4-32l32-128c0-12.8 12.8-19.2 19.2-25.6h44.8c-25.6-6.4-44.8-6.4-70.4 0-38.4 12.8-76.8 38.4-96 76.8-25.6 38.4-32 83.2-19.2 128l6.4 12.8c6.4 12.8 0 25.6-6.4 32L179.2 832z m262.4-326.4L281.6 345.6c-6.4-6.4-12.8-6.4-19.2 0-6.4 0-12.8 6.4-19.2 6.4h-6.4c-6.4 0-12.8 6.4-12.8 6.4l-6.4 6.4c-6.4 12.8-12.8 19.2-12.8 32 0 6.4-6.4 12.8-6.4 25.6l-32 32L64 352l32-32h6.4c6.4 0 19.2 0 25.6-6.4 12.8 0 19.2-6.4 32-12.8 0 0 0-6.4 6.4-6.4 0-6.4 6.4-6.4 6.4-12.8l6.4-6.4s0-6.4 6.4-6.4c0-6.4 6.4-6.4 6.4-12.8 6.4-6.4 0-12.8 0-19.2l-32-12.8 83.2-83.2 12.8 12.8c6.4 6.4 12.8 6.4 19.2 0l6.4-6.4c6.4-6.4 12.8-6.4 19.2-6.4 12.8-6.4 19.2-6.4 25.6-6.4h6.4c25.6-25.6 57.6-38.4 83.2-32 12.8 0 25.6 6.4 38.4 12.8l19.2 6.4h-19.2H448h-6.4c-19.2 12.8-32 25.6-44.8 51.2 0 12.8-6.4 19.2-12.8 32l-19.2 38.4c-6.4 6.4 0 12.8 0 19.2l160 160-83.2 83.2zM294.4 332.8l147.2 147.2 57.6-57.6-147.2-147.2c-6.4-12.8-6.4-25.6 0-38.4 6.4-12.8 12.8-19.2 19.2-32 0-12.8 6.4-19.2 6.4-32v-6.4c12.8-25.6 32-44.8 51.2-57.6h-12.8c-25.6 0-51.2 6.4-76.8 32-6.4 0-6.4 6.4-12.8 6.4 0 0-6.4 6.4-19.2 6.4-6.4 0-6.4 6.4-12.8 6.4l-6.4 12.8c-12.8 6.4-32 6.4-44.8-6.4l-57.6 57.6c12.8 6.4 12.8 25.6 6.4 38.4 0 6.4-6.4 6.4-6.4 12.8 0 0 0 6.4-6.4 6.4v6.4c0 6.4-6.4 6.4-6.4 12.8s-6.4 6.4-6.4 12.8l-38.4 19.2c-6.4 0-12.8 6.4-25.6 6.4l-19.2 12.8 38.4 38.4H128v6.4l38.4 38.4 19.2-19.2c0-6.4 0-19.2 6.4-25.6 0-12.8 6.4-25.6 12.8-32 0-6.4 6.4-6.4 12.8-12.8 6.4 0 6.4-6.4 12.8-6.4l6.4-6.4c6.4 0 12.8-6.4 12.8-6.4 19.2-6.4 38.4-6.4 44.8 6.4z" p-id="6258"></path></svg>