<svg t="1685090010296" class="icon" viewBox="0 0 1027 1024" version="1.1" xmlns="http://www.w3.org/2000/svg" p-id="19150" width="200" height="200"><path d="M318.464 570.368l132.096 0-2.048 135.168-128 0zM641.024 576.512l128 0 0 129.024-128 0 0-129.024zM448.512 256l192.512 0 0 129.024-192.512 0 0-129.024zM892.928 64.512q28.672 0 52.736 10.752t41.984 29.184 28.16 43.52 10.24 53.76l0 621.568q0 28.672-10.24 53.76t-28.16 43.52-41.984 29.184-52.736 10.752l-691.2 0q-28.672 0-53.76-10.752t-43.52-29.184-29.184-43.52-10.752-53.76l0-621.568q0-28.672 10.752-53.76t29.184-43.52 43.52-29.184 53.76-10.752l691.2 0zM512 829.44q-1.024-5.12-1.536-29.184t-0.512-56.832l0-71.68q0-37.888 0.512-71.168t1.024-57.344 1.536-30.208q-6.144 1.024-25.088 1.536t-45.056 1.024-55.296 0.512-55.808-0.512-47.104-1.024-27.648-1.536q1.024 5.12 1.536 28.672t1.024 56.832 0.512 71.68-0.512 72.704-1.024 59.392-1.536 31.232l61.44 0 2.048-64.512 128 0 2.048 60.416 61.44 0zM385.024 448.512q10.24-1.024 35.84-2.048t58.88-1.536 70.144-0.512 69.12 0.512 55.808 1.024 30.72 1.536q-1.024-5.12-1.536-24.576t-1.024-46.08-0.512-56.832 0.512-56.832 1.024-46.08 1.536-24.576q-7.168 1.024-31.232 1.536t-56.832 1.024-69.632 0.512l-70.656 0q-32.768 0-57.856-1.024t-34.304-2.048q1.024 4.096 1.536 23.04t0.512 45.568l0 58.368 0 57.344q0 27.648-0.512 47.104t-1.536 24.576zM832.512 826.368q-1.024-5.12-1.024-28.672l0-56.32 0-71.68 0-71.68q0-32.768 0.512-56.32t1.536-28.672q-7.168 1.024-26.624 1.536t-46.08 1.024-56.32 0.512l-55.296 0q-25.6 0-45.568-0.512t-26.112-1.536q1.024 5.12 1.536 29.184t0.512 56.832l0 71.68 0 72.704q0 33.792-0.512 58.368t-1.536 30.72l59.392 0 4.096-64.512 128 0 3.072 57.344 60.416 0z" p-id="19151"></path></svg>