<svg t="1685089694195" class="icon" viewBox="0 0 1031 1024" version="1.1" xmlns="http://www.w3.org/2000/svg" p-id="11237" width="200" height="200"><path d="M1007.168 600.747c-3.414-58.027-40.96-109.227-92.16-133.12L867.22 245.76c-17.067-81.92-98.987-150.187-177.493-150.187H327.914c-81.92 0-163.84 68.267-177.493 150.187l-47.787 221.867c-51.2 23.893-88.746 75.093-92.16 133.12L0.234 740.693c-3.413 61.44 30.72 119.467 85.334 139.947 13.653 51.2 54.613 88.747 109.226 88.747 47.787 0 88.747-30.72 105.814-75.094h430.08c17.066 44.374 58.026 75.094 105.813 75.094 51.2 0 95.573-37.547 109.227-85.334 54.613-23.893 88.746-78.506 85.333-139.946l-23.893-143.36zM897.94 826.027c-13.653 3.413-23.893 17.066-23.893 30.72 0 27.306-23.894 47.786-47.787 47.786s-47.787-20.48-47.787-47.786c0-17.067-13.653-30.72-30.72-30.72H269.888c-17.067 0-30.72 13.653-30.72 30.72-3.414 27.306-23.894 47.786-47.787 47.786-27.307 0-47.787-20.48-47.787-47.786 0-13.654-10.24-27.307-23.893-30.72-37.547-10.24-58.027-40.96-58.027-78.507l10.24-143.36c3.414-37.547 30.72-71.68 68.267-81.92 13.653-3.413 20.48-13.653 23.893-27.307v-10.24L208.448 256c10.24-47.787 64.853-92.16 119.466-92.16h365.227c54.613 0 105.813 44.373 119.467 98.987l47.786 228.693v10.24c0 13.653 10.24 23.893 23.894 27.307 37.546 10.24 64.853 44.373 68.266 81.92l10.24 143.36c-3.413 30.72-27.306 64.853-64.853 71.68z m0 0" p-id="11238"></path><path d="M788.714 607.573c-17.066 0-37.546 6.827-51.2 20.48s-20.48 34.134-20.48 51.2c0 20.48 6.827 37.547 20.48 51.2 13.654 13.654 30.72 20.48 51.2 20.48 17.067 0 37.547-6.826 51.2-20.48 13.654-13.653 20.48-30.72 20.48-51.2s-6.826-37.546-20.48-51.2c-13.653-13.653-34.133-20.48-51.2-20.48zM269.888 498.347h481.28c10.24 0 20.48-3.414 27.306-13.654 6.827-6.826 10.24-17.066 6.827-30.72v-3.413l-37.547-167.253c-3.413-27.307-30.72-47.787-58.026-47.787h-358.4c-27.307 3.413-54.614 27.307-58.027 51.2l-37.547 167.253v3.414c-3.413 10.24 0 23.893 6.827 30.72 6.827 6.826 13.653 10.24 27.307 10.24z m64.853-197.974h351.573l30.72 133.12H304.021l30.72-133.12z m-102.4 307.2c-17.067 0-37.547 6.827-51.2 20.48-13.653 13.654-20.48 34.134-20.48 51.2 0 20.48 6.827 37.547 20.48 51.2 13.653 13.654 30.72 20.48 51.2 20.48 17.067 0 37.547-6.826 51.2-20.48 13.653-13.653 20.48-30.72 20.48-51.2s-6.827-37.546-20.48-51.2c-13.653-13.653-34.133-20.48-51.2-20.48z m0 0" p-id="11239"></path></svg>