<svg t="1685091624378" class="icon" viewBox="0 0 1024 1024" version="1.1" xmlns="http://www.w3.org/2000/svg" p-id="5126" width="200" height="200"><path d="M862.7 128H160c-52.7 0-95.8 41.6-95.8 94.9v577.8c0 51.6 43.1 94.9 95.8 94.9h702.7c52.7 0 95.8-41.6 95.8-94.9V222.9c0-53.3-43.1-94.9-95.8-94.9zM224.3 288.6c21.5-23.5 52.8-37.3 84.1-37.3 50.8-2 95.8 27.5 117.3 72.6 21.5 45.1 11.7 100-23.5 135.3-35.2 37.3-88 47.1-134.9 29.4C220.4 469 191 423.9 191 374.9c0.1-31.4 11.8-62.8 33.3-86.3zM472 747.4c-21.7 0-39.4-12.4-39.4-27.5 0-74.2-53.2-136-118.1-136-65 0-118.1 63.2-118.1 136 0 15.1-17.7 27.5-39.4 27.5s-39.4-12.4-39.4-27.5c0-107.1 86.6-190.9 196.9-190.9 110.2 0 196.9 83.8 196.9 190.9-0.1 15.2-17.8 27.5-39.4 27.5z m261.3-19.9H575c-17.4 0-31.7-15-31.7-33.3 0-18.3 14.3-33.3 31.7-33.3h158.4c17.4 0 31.7 15 31.7 33.3-0.1 18.3-14.3 33.3-31.8 33.3z m128.9-149.9H578.7c-19.5 0-35.4-15-35.4-33.3 0-18.3 15.9-33.3 35.4-33.3h283.5c19.5 0 35.4 15 35.4 33.3 0 18.3-15.9 33.3-35.4 33.3z m2.6-166.5H579c-19.7 0-35.7-15-35.7-33.3 0-18.3 16.1-33.3 35.7-33.3h285.8c19.7 0 35.7 15 35.7 33.3 0.1 18.3-16 33.3-35.7 33.3z m-34 0" p-id="5127"></path></svg>