<svg t="1685091465179" class="icon" viewBox="0 0 1024 1024" version="1.1" xmlns="http://www.w3.org/2000/svg" p-id="1698" width="200" height="200"><path d="M613.144255 292.361726l-163.296255 178.370135-60.394204 240.836689 184.106104-198.846928z m76.072518-61.381036l-56.224832 311.259586-253.073422 274.265669a42.668209 42.668209 0 0 1-72.778963-39.312975l84.583957-337.348994 224.011179-245.240432a42.668209 42.668209 0 0 1 73.482081 36.36481zM511.993832 959.991519c247.423801 0 447.997687-200.573886 447.997687-447.997687S759.417633 63.959139 511.993832 63.959139 63.996145 264.582367 63.996145 511.993832s200.573886 447.997687 447.997687 447.997687z m0 63.996146C229.229061 1023.987665 0 794.758604 0 511.993832S229.229061 0 511.993832 0s511.993832 229.253731 511.993833 511.993832-229.229061 512.006168-511.993833 512.006168z" p-id="1699"></path></svg>