<?xml version="1.0" standalone="no"?><!DOCTYPE svg PUBLIC "-//W3C//DTD SVG 1.1//EN" "http://www.w3.org/Graphics/SVG/1.1/DTD/svg11.dtd"><svg t="1684827102114" class="icon" viewBox="0 0 1024 1024" version="1.1" xmlns="http://www.w3.org/2000/svg" p-id="2357" xmlns:xlink="http://www.w3.org/1999/xlink" width="200" height="200"><path d="M902.434679 566.61018C976.843658 566.61018 1003.223505 533.969293 1012.322883 514.518329 1021.42226 495.067366 1029.547699 453.911465 981.93597 396.699476 981.40726 396.059458 980.87855 395.502921 980.294186 394.918558L638.886648 61.664284C605.299648 21.871899 560.359297 0 512.191031 0 512.163204 0 512.107551 0 512.079724 0 463.800151 0.027827 418.748492 22.011033 385.161492 61.97038L43.642647 394.612462C43.08611 395.196826 42.529573 395.78119 42.000863 396.39338-5.610866 453.633197 2.598053 494.872578 11.697431 514.379195 20.796809 533.885812 47.23231 566.61018 121.641288 566.61018L160.153639 566.61018 160.153639 1000.736759C160.153639 1013.564934 170.533051 1024 183.361226 1024L838.293806 1024C851.12198 1024 861.501393 1013.564934 861.501393 1000.736759L861.501393 570.422457C861.501393 557.594282 889.606505 566.61018 902.434679 566.61018ZM645.425956 968.457621 378.39957 968.457621C378.566531 967.372374 379.123067 739.359222 379.123067 739.359222 379.123067 693.695372 420.139834 645.415799 470.562074 645.415799L553.207798 645.415799C607.943198 645.415799 644.702458 687.684774 644.702458 750.573439 644.702458 750.573439 645.258995 967.372374 645.425956 968.457621Z" p-id="2358" fill="#2c2c2c"></path></svg>