<svg t="1685091222404" class="icon" viewBox="0 0 1049 1024" version="1.1" xmlns="http://www.w3.org/2000/svg" p-id="36250" width="200" height="200"><path d="M627.6352 232.96v2.56h-89.6V358.4h112.64l30.72 74.24 12.8 30.72h48.64v61.44h135.68v-61.44h35.84l17.92 51.2v243.2l-17.92 48.64h-35.84v-61.44h-135.68v61.44h-307.2c-7.68 0-12.8-2.56-17.92-10.24l-40.96-69.12-15.36-25.6h-130.56V430.08h89.6l12.8-25.6 23.04-46.08h110.08V235.52h-89.6v-2.56l48.64-23.04h153.6l48.64 23.04z m-46.08-71.68H422.8352l-84.48 25.6c-5.12 0-10.24 5.12-10.24 12.8v87.04h92.16v25.6h-74.24c-10.24 0-20.48 5.12-25.6 15.36l-30.72 56.32h-99.84c-5.12 0-10.24 2.56-10.24 7.68v125.44h-28.16v-135.68h-40.96c-17.92 0-33.28 15.36-33.28 35.84v125.44c0 7.68 5.12 12.8 12.8 12.8h23.04v148.48c0 12.8 10.24 23.04 23.04 23.04h15.36v-135.68h28.16V742.4c0 5.12 5.12 10.24 10.24 10.24h145.92l40.96 69.12c12.8 20.48 35.84 35.84 58.88 35.84h335.36c12.8 0 20.48-10.24 20.48-23.04V793.6h38.4v40.96c0 12.8 10.24 23.04 20.48 23.04h79.36c12.8 0 23.04-7.68 28.16-17.92l25.6-66.56c2.56-2.56 2.56-7.68 2.56-10.24V512c0-2.56 0-7.68-2.56-10.24l-25.6-66.56c-5.12-10.24-15.36-17.92-28.16-17.92h-79.36c-12.8 0-20.48 10.24-20.48 23.04v40.96h-38.4v-40.96c0-12.8-10.24-23.04-20.48-23.04h-43.52l-35.84-89.6c-5.12-10.24-15.36-17.92-25.6-17.92h-79.36v-25.6h92.16V199.68c0-7.68-5.12-12.8-10.24-12.8l-87.04-25.6z" p-id="36251"></path><path d="M770.9952 862.72h-335.36c-25.6 0-48.64-12.8-61.44-35.84l-38.4-69.12h-145.92c-7.68 0-12.8-5.12-12.8-12.8v-148.48h-23.04v135.68h-17.92c-15.36 0-25.6-12.8-25.6-25.6v-145.92h-20.48c-7.68 0-15.36-7.68-15.36-15.36v-125.44c0-20.48 15.36-38.4 35.84-38.4h43.52v135.68h23.04v-125.44c0-7.68 5.12-12.8 12.8-12.8h97.28l28.16-53.76c5.12-10.24 17.92-17.92 28.16-17.92h71.68v-17.92h-89.6V199.68c0-7.68 5.12-15.36 12.8-15.36l84.48-25.6h158.72l84.48 25.6c7.68 0 12.8 7.68 12.8 15.36v87.04h-89.6v20.48h76.8c12.8 0 23.04 7.68 28.16 20.48l35.84 84.48h40.96c12.8 0 23.04 10.24 23.04 25.6v38.4h33.28v-38.4c0-12.8 10.24-25.6 23.04-25.6h79.36c12.8 0 25.6 7.68 30.72 20.48l25.6 66.56c2.56 2.56 2.56 7.68 2.56 10.24v250.88c0 2.56 0 7.68-2.56 10.24l-23.04 66.56c-5.12 12.8-17.92 20.48-30.72 20.48h-79.36c-12.8 0-23.04-10.24-23.04-25.6V793.6h-35.84v38.4c0 17.92-10.24 30.72-23.04 30.72z m-622.08-271.36h33.28v153.6c0 5.12 2.56 7.68 7.68 7.68h148.48l40.96 69.12c12.8 20.48 33.28 33.28 56.32 33.28h335.36c10.24 0 17.92-7.68 17.92-20.48V793.6h43.52v43.52c0 10.24 7.68 20.48 17.92 20.48h79.36c10.24 0 20.48-7.68 25.6-17.92l23.04-66.56c2.56-2.56 2.56-5.12 2.56-10.24V512c0-2.56 0-5.12-2.56-10.24l-25.6-66.56c-5.12-10.24-12.8-17.92-25.6-17.92h-79.36c-10.24 0-17.92 7.68-17.92 20.48v43.52h-43.52v-43.52c0-10.24-7.68-20.48-17.92-20.48h-46.08v-2.56l-35.84-87.04c-5.12-10.24-12.8-15.36-23.04-15.36h-81.92V281.6h92.16V199.68c0-5.12-2.56-10.24-7.68-10.24l-84.48-25.6h-156.16l-84.48 25.6c-5.12 0-10.24 5.12-10.24 10.24v84.48h92.16v30.72h-76.8c-10.24 0-17.92 5.12-23.04 15.36l-33.28 56.32h-99.84c-5.12 0-7.68 2.56-7.68 7.68v128h-33.28V384h-38.4c-17.92 0-30.72 12.8-30.72 33.28v125.44c0 5.12 5.12 10.24 10.24 10.24h25.6v151.04c0 12.8 10.24 20.48 20.48 20.48h12.8v-133.12z m596.48 220.16h-309.76c-7.68 0-15.36-5.12-17.92-10.24l-53.76-92.16h-135.68V430.08h89.6l38.4-71.68h110.08V238.08h-92.16V230.4l51.2-23.04h156.16l48.64 23.04v7.68h-92.16V358.4h112.64v2.56l43.52 102.4h48.64v61.44h133.12v-61.44h40.96l17.92 53.76v245.76l-17.92 51.2h-40.96v-61.44h-133.12v58.88z m-512-107.52h133.12l15.36 25.6 40.96 69.12c2.56 5.12 7.68 7.68 15.36 7.68h304.64V742.4h143.36v61.44h30.72l17.92-46.08v-243.2l-17.92-48.64h-30.72v61.44h-143.36v-61.44h-46.08l-17.92-30.72-30.72-74.24h-115.2v-128h87.04l-43.52-20.48h-153.6l-46.08 20.48h89.6v130.56h-107.52l-38.4 71.68h-87.04v268.8z" p-id="36252"></path></svg>