<svg t="1685091314462" class="icon" viewBox="0 0 1024 1024" version="1.1" xmlns="http://www.w3.org/2000/svg" p-id="41184" width="200" height="200"><path d="M853.3504 853.3504H170.6496A170.8032 170.8032 0 0 1 0 682.6496v-512A170.8032 170.8032 0 0 1 170.6496 0h682.7008A170.8032 170.8032 0 0 1 1024 170.6496v512a170.8032 170.8032 0 0 1-170.6496 170.7008z m-682.7008-768a85.504 85.504 0 0 0-85.2992 85.2992v512A85.504 85.504 0 0 0 170.6496 768h682.7008a85.504 85.504 0 0 0 85.2992-85.3504v-512a85.504 85.504 0 0 0-85.2992-85.2992H170.6496zM896 1024h-768a42.6496 42.6496 0 1 1 0-85.3504h768a42.6496 42.6496 0 0 1 0 85.3504z" p-id="41185"></path><path d="M408.4224 667.4432c-11.264 0-22.272-2.9696-32-8.4992a64.256 64.256 0 0 1-32-55.5008V249.856a64 64 0 0 1 96-55.4496l306.688 176.7936a64.1024 64.1024 0 0 1 0 110.9504l-306.688 176.7936c-9.728 5.632-20.7872 8.5504-32 8.4992z m20.8896-380.6208v279.9616l242.688-140.1344-242.688-139.8272z" p-id="41186"></path></svg>