<svg t="1685587530526" class="icon" viewBox="0 0 1024 1024" version="1.1" xmlns="http://www.w3.org/2000/svg" p-id="1561" width="200" height="200"><path d="M672.53 114.39a65 65 0 0 0-60.28-6.91l-0.63 0.26-401.81 169.33h-80.94a65.08 65.08 0 0 0-65 65v339.86a65.07 65.07 0 0 0 65 65h80l398.92 204 1 0.46a65 65 0 0 0 92.13-59.07V168.05a65 65 0 0 0-28.39-53.66z m-21.69 777.88a15 15 0 0 1-20.84 13.8l-403.76-206.4a25 25 0 0 0-11.38-2.74h-86a15 15 0 0 1-15-15V342.07a15 15 0 0 1 15-15h86a24.89 24.89 0 0 0 9.71-2L630.64 154a15 15 0 0 1 20.2 14.07zM783.36 263.32A24.93 24.93 0 0 0 801 256l111.49-111.45a25 25 0 0 0-35.36-35.35L765.68 220.65a25 25 0 0 0 17.68 42.67zM766.6 406.14a25 25 0 0 0 25 24.81h0.2l140.29-1.09a25 25 0 0 0-0.19-50h-0.2L791.4 381a25 25 0 0 0-24.8 25.14zM930.62 587.89h-0.2L790.13 589a25 25 0 0 0 0.19 50h0.2l140.29-1.09a25 25 0 0 0-0.19-50zM803.55 767.71a25 25 0 0 0-35.36 35.35L877.13 912a25 25 0 0 0 35.36-35.35z" p-id="1562"></path></svg>