<svg t="1687051848735" class="icon" viewBox="0 0 1024 1024" version="1.1" xmlns="http://www.w3.org/2000/svg" p-id="3489" width="200" height="200"><path d="M336.2 593.6h-70v-131.8h70v131.8zM476 339.8h-70v253.8h70V339.8z m140 33.8h-70v220h70v-220z m139.8-84.4h-70v304.4h70V289.2z m187.8 364.2v-428c0-75.4-61.2-136.6-136.6-136.6H211.2c-75.4 0-136.6 61.2-136.6 136.6v428c0 75.4 61.2 136.6 136.6 136.6h595.8c75.2 0.2 136.6-61.2 136.6-136.6zM806.8 148.8c42.2 0 76.6 34.4 76.6 76.6v428c0 42.2-34.4 76.6-76.6 76.6H211.2c-42.2 0-76.6-34.4-76.6-76.6v-428c0-42.2 34.4-76.6 76.6-76.6h595.6z m39.4 743.4c0-16.6-13.4-30-30-30H201.8c-16.6 0-30 13.4-30 30s13.4 30 30 30H816c16.8 0 30.2-13.4 30.2-30z" p-id="3490"></path></svg>