<svg t="1685092781825" class="icon" viewBox="0 0 1024 1024" version="1.1" xmlns="http://www.w3.org/2000/svg" p-id="14847" width="200" height="200"><path d="M899.459459 193.72973a55.517405 55.517405 0 0 0-55.351351-55.351352h-55.351351V83.027027h83.027027a83.027027 83.027027 0 0 1 83.027027 83.027027v166.054054h-55.351352V193.72973z m-221.405405-55.351352V0h55.351351v221.405405h-55.351351V138.378378zM345.945946 83.027027h276.756757v55.351351H345.945946V83.027027zM235.243243 138.378378V0h55.351352v221.405405H235.243243V138.378378zM69.189189 193.72973v691.891892a55.517405 55.517405 0 0 0 55.351352 55.351351h276.756756v55.351351H96.864865a83.027027 83.027027 0 0 1-83.027027-83.027027V166.054054a83.027027 83.027027 0 0 1 83.027027-83.027027h83.027027v55.351351H124.540541a55.517405 55.517405 0 0 0-55.351352 55.351352z m110.702703 193.729729h249.081081v55.074595l-0.276757 0.276757H179.891892v-55.351352z m138.378378 387.45946H179.891892v-55.351351h138.378378v55.351351z m-138.378378-221.405405h138.378378v55.351351H179.891892v-55.351351z m525.837838-138.378379a304.432432 304.432432 0 1 1-304.432433 304.432433 304.266378 304.266378 0 0 1 304.432433-304.432433z m0 553.513514a249.081081 249.081081 0 1 0-249.081081-249.081081 249.081081 249.081081 0 0 0 249.081081 249.081081z m27.675675-249.081081h166.054054v55.351351h-221.405405v-193.72973h55.351351v138.378379z" fill="" p-id="14848"></path></svg>