<svg t="1685587598973" class="icon" viewBox="0 0 1024 1024" version="1.1" xmlns="http://www.w3.org/2000/svg" p-id="4347" width="200" height="200"><path d="M102.4 983.04c-3.413333 0-6.826667 0-10.24-3.413333-6.826667-3.413333-10.24-13.653333-6.826667-20.48l85.333334-238.933334C71.68 645.12 17.066667 542.72 17.066667 436.906667v-3.413334c0-61.44 17.066667-119.466667 54.613333-174.08C157.013333 126.293333 324.266667 44.373333 512 44.373333c273.066667 0 494.933333 177.493333 494.933333 392.533334S785.066667 829.44 512 829.44c-58.026667 0-116.053333-6.826667-174.08-23.893333l-225.28 174.08c-3.413333 0-6.826667 3.413333-10.24 3.413333zM512 78.506667c-177.493333 0-334.506667 75.093333-413.013333 197.973333C68.266667 324.266667 51.2 375.466667 51.2 430.08v3.413333c0 98.986667 54.613333 194.56 150.186667 262.826667 6.826667 3.413333 10.24 13.653333 6.826666 20.48l-68.266666 197.973333 187.733333-143.36c3.413333-3.413333 10.24-3.413333 17.066667-3.413333 54.613333 17.066667 112.64 27.306667 170.666666 27.306667 252.586667 0 460.8-160.426667 460.8-358.4S764.586667 78.506667 512 78.506667z" fill="" p-id="4348"></path><path d="M512 522.24c-10.24 0-17.066667-6.826667-17.066667-17.066667v-170.666666c0-10.24 6.826667-17.066667 17.066667-17.066667s17.066667 6.826667 17.066667 17.066667v170.666666c0 6.826667-6.826667 17.066667-17.066667 17.066667z" fill="" p-id="4349"></path><path d="M512 658.773333c-122.88 0-221.866667-98.986667-221.866667-221.866666s98.986667-221.866667 221.866667-221.866667 221.866667 98.986667 221.866667 221.866667-98.986667 221.866667-221.866667 221.866666z m0-409.6c-102.4 0-187.733333 85.333333-187.733333 187.733334s85.333333 187.733333 187.733333 187.733333 187.733333-85.333333 187.733333-187.733333S614.4 249.173333 512 249.173333z" fill="" p-id="4350"></path><path d="M512 590.506667c-10.24 0-17.066667-6.826667-17.066667-17.066667s6.826667-17.066667 17.066667-17.066667 17.066667 6.826667 17.066667 17.066667-6.826667 17.066667-17.066667 17.066667z" fill="" p-id="4351"></path></svg>