<svg t="1685091552047" class="icon" viewBox="0 0 1024 1024" version="1.1" xmlns="http://www.w3.org/2000/svg" p-id="3110" width="200" height="200"><path d="M468.160159 241.997887l300.740604 0 0 151.936979-300.740604 0 0-151.936979Z" p-id="3111"></path><path d="M1014.892602 82.870157c-0.781804-1.979068-1.610679-3.934601-2.48458-5.86455s-1.794874-3.836363-2.757802-5.715148c-0.963952-1.878785-1.971905-3.731987-3.022837-5.557559-0.524955-0.91381-1.062189-1.819433-1.606586-2.717893-22.961899-37.747606-64.489587-63.011937-111.810193-63.011937l-762.420184 0-0.001023 0c-47.31856 0-88.848294 25.263308-111.808147 63.011937-0.546444 0.89846-1.082655 1.804083-1.607609 2.717893-1.050932 1.824549-2.059909 3.677751-3.022837 5.557559-9.15754 17.85357-14.327267 38.075063-14.327267 59.480518l0 678.186987 0 83.844342c0 72.106032 58.662899 130.76893 130.767907 130.76893l94.837688 0c0.474813 0.029676 0.951672 0.050142 1.433648 0.050142 0.482999 0 0.959858-0.020466 1.434671-0.050142l567.007148 0c0.474813 0.029676 0.951672 0.050142 1.434671 0.050142s0.959858-0.020466 1.434671-0.050142l94.837688 0c72.103985 0 130.766884-58.662899 130.766884-130.76893l0-83.844342L1023.978511 130.770977C1023.977487 113.872149 1020.756129 97.711123 1014.892602 82.870157zM247.303714 863.841804c3.915158-28.976875 5.481835-51.691134 5.481835-93.982206L252.785549 518.459601c0-36.027433 0.78385-57.955796 3.132331-96.330687-25.061717 44.641599-42.292095 69.702293-79.883136 114.343892-12.53137-24.280937-15.663701-28.977898-32.111252-46.208276 58.738623-59.52145 108.07923-135.490451 144.10564-220.856445 18.013205-43.074922 31.327402-85.365994 35.243583-111.210538l53.255765 20.362709c-25.844544 72.05282-48.55778 124.525758-74.402324 172.299688l0 421.349157c0 35.243583 1.566677 65.004308 5.482858 91.632702L247.303714 863.841804zM866.798126 834.081079c-30.544575 1.566677-43.857749 2.350527-62.654804 2.350527-108.861034 0-195.793704-17.230378-253.749501-51.692158-38.374891-21.928363-68.919466-53.254742-94.762986-96.330687-24.279913 70.486143-47.774953 113.561065-93.199379 169.166334-11.74752-14.880874-21.928363-22.71119-39.158741-34.45871 46.208276-50.908307 75.186174-103.380222 97.113514-180.13205 13.314197-45.425449 21.146559-96.330687 21.146559-135.489428 0-3.133354 0-4.699008-0.78385-9.399039l54.822442 7.049535c-3.133354 12.530347-3.133354 14.097024-13.313174 73.618474-3.133354 19.578859-6.266708 33.675883-10.964693 54.822442 33.675883 62.655827 67.352789 95.546837 122.175231 120.60753L593.468744 438.574419l-93.98016 0c-46.208276 0-59.522473 0.78385-82.235709 3.133354 2.349504-18.011158 3.133354-33.674859 3.133354-62.652757L420.386229 254.528234c0-30.543552-0.78385-43.074922-3.133354-61.870954 25.063764 3.133354 47.774953 3.917204 84.583167 3.917204l234.170642 0c37.592064 0 59.522473-0.78385 84.583167-3.917204-2.349504 17.230378-3.133354 31.327402-3.133354 63.437631l0 122.960104c0 28.194048 0.78385 45.422379 3.133354 62.652757-24.277867-2.349504-45.425449-3.133354-81.449813-3.133354l-96.330687 0 0 123.743954 131.572223 0c29.760725 0 49.34163-1.566677 69.705363-4.700031l0 54.039615c-21.930409-3.131308-41.510291-4.697985-69.705363-4.697985l-131.572223 0 0 164.466302c43.855702 9.400063 83.01649 13.314197 139.405609 13.314197 33.675883 0 57.171946-0.782827 100.246868-3.914134C873.062788 802.753677 869.931481 812.93452 866.798126 834.081079z" p-id="3112"></path></svg>