<svg t="1687144975893" class="icon" viewBox="0 0 1025 1024" version="1.1" xmlns="http://www.w3.org/2000/svg" p-id="3392" width="200" height="200"><path d="M344.058187 774.328941l326.727666 0c4.910059 8.70159 10.89464 16.775863 17.802289 23.835991l0.044004 0.065495 0.092102 0.067541c19.9104 20.315649 47.355766 32.915199 77.583634 32.915199 30.362951 0 57.829807-12.600574 77.761698-32.915199l-0.089032-0.067541c6.929139-7.129716 12.958748-15.134401 17.845269-23.901486l56.981446 0 0-71.322747-25.452893 0-3.006618-228.25121L690.738211 474.754984 690.738211 294.704832 911.505623 294.704832l0 33.454508-15.315535 0 0 62.147343 13.096901 0 2.15314 15.696223-23.858505 29.574968 18.905466 40.742844 52.581018-18.522731-8.677029-18.813364-28.073706 10.157825-5.138267-10.896687 24.016102-17.535193-0.31417-30.404909 18.64144 0 0-62.147343-16.376755 0 0-33.454508 7.13074 0 0-69.937124L690.738211 224.766685l0-33.446321-75.06925 0-51.081802 283.42848-48.075185 0-1.522753-213.554804-8.340346-5.874059-9.911196 0c-124.988521 0 16.366521 0-108.622 0l-9.911196 0-8.341369 5.874059c-38.141475 26.661475-68.117598 58.75492-92.113233 91.110344-18.430629 24.732451-33.140338 69.006894-45.292682 95.688836l-74.12981 0c-55.720672 42.268667-67.382829 192.492106-65.518275 255.006834l-28.14227 0 0 71.32377 88.324771 0c4.912105 8.702613 10.895664 16.77484 17.847316 23.837015l0 0.065495 0.091079 0.066518c19.955428 20.316672 47.400794 32.915199 77.583634 32.915199 30.338391 0 57.850274-12.600574 77.717694-32.915199l-0.045028-0.066518C333.138986 791.102757 339.125615 783.096026 344.058187 774.328941L344.058187 774.328941zM805.812466 678.4252c10.088236 10.359426 16.347077 24.624998 16.347077 40.385693 0 15.83233-6.233257 30.089715-16.255999 40.38467l-0.091079 0c-10.132241 10.337935-24.080573 16.702182-39.507654 16.702182-15.470062 0-29.442955-6.36834-39.46365-16.592683l-0.136106-0.109499c-10.022742-10.294954-16.232462-24.55234-16.232462-40.38467 0-15.760695 6.235304-30.026267 16.368568-40.385693l0-0.108476c10.021718-10.204899 23.991541-16.593706 39.46365-16.593706C781.73087 661.723018 795.679202 668.110802 805.812466 678.4252L805.812466 678.4252zM287.977294 678.4252c10.135311 10.359426 16.391082 24.624998 16.391082 40.385693 0 15.83233-6.207673 30.089715-16.255999 40.38467l-0.135083 0c-10.087213 10.337935-24.036569 16.702182-39.46365 16.702182-15.494622 0-29.441932-6.36834-39.46365-16.592683l-0.091079-0.109499c-10.066746-10.294954-16.277489-24.55234-16.277489-40.38467 0-15.760695 6.279308-30.026267 16.368568-40.385693l0-0.108476c10.021718-10.204899 23.969028-16.593706 39.46365-16.593706C263.939702 661.723018 277.888035 668.110802 287.977294 678.4252L287.977294 678.4252zM446.687419 447.997314 305.153289 447.997314c7.131763-12.868693 15.09142-42.755784 24.037592-54.797606 18.139996-24.350739 40.672232-48.402658 69.104112-69.480707 105.97151 0-57.759196 0 48.232781 0L446.687419 447.997314z" fill="#CCCCCC" p-id="3393"></path></svg>