    <svg t="1685092817808" class="icon" viewBox="0 0 1024 1024" version="1.1" xmlns="http://www.w3.org/2000/svg" p-id="16851" width="200" height="200"><path d="M960.362889 184.922883h-132.524846V47.341804c0-7.82589-2.383193-15.10429-6.119008-21.287709a40.771921 40.771921 0 0 0-37.905649-25.989684H236.838421c-22.543716 0-40.804126 18.26041-40.804127 40.771921 0 1.094981 0.257642 2.157756 0.354259 3.252736-0.064411 1.094981-0.322053 2.157756-0.322053 3.252736v137.581079H63.573859C33.526306 184.922883 9.211298 209.270097 9.211298 239.285445v183.634671c0 22.479306 18.26041 40.739716 40.739715 40.739715 22.543716 0 8.598817-18.26041 8.598818-40.739715h0.096616V313.003397c0-25.699836 10.498931-70.658448 78.709775-78.774186h749.095483C956.111788 231.620581 962.810493 287.30356 962.810493 313.003397v582.883884c-2.673041 72.42974-50.626746 78.74198-76.358788 78.741981H137.356222c-25.699836 0-76.294377-11.690527-78.741981-78.741981v-185.309347h-0.483079c-1.739087-20.86904 13.139766-37.293748-8.180149-37.293747A40.578689 40.578689 0 0 0 9.533351 710.577934H9.211298v259.059505c0 30.047553 24.282803 54.362561 54.362561 54.362561h896.78903c30.015348 0 54.362561-24.347213 54.362561-54.362561V239.285445a54.426972 54.426972 0 0 0-54.362561-54.362562zM245.372827 49.402944h533.126683v135.519939H245.372827V49.402944z" fill="" p-id="16852"></path><path d="M546.395849 422.88791H479.73086a27.181281 27.181281 0 0 0-27.149075 27.149076v93.84627h-94.973456a27.213486 27.213486 0 0 0-27.181281 27.18128v66.66499c0 15.039879 12.173607 27.245691 27.181281 27.245691h94.973456v93.84627c0 15.007674 12.173607 27.181281 27.149075 27.181281h66.664989a27.181281 27.181281 0 0 0 27.181281-27.181281v-93.84627h92.783495a27.213486 27.213486 0 0 0 27.18128-27.245691v-66.66499a27.181281 27.181281 0 0 0-27.18128-27.18128h-92.783495v-93.84627a27.181281 27.181281 0 0 0-27.181281-27.149076z" fill="" p-id="16853"></path></svg>