<svg t="1685096511910" class="icon" viewBox="0 0 1024 1024" version="1.1" xmlns="http://www.w3.org/2000/svg" p-id="5034" width="200" height="200"><path d="M489.2 526.9c-110.1 0-199.6-89.6-199.6-199.8s89.6-199.8 199.6-199.8c110.1 0 199.6 89.6 199.6 199.8s-89.5 199.8-199.6 199.8z m0-349.6c-82.5 0-149.6 67.2-149.6 149.8 0 82.6 67.1 149.8 149.6 149.8s149.6-67.2 149.6-149.8c0-82.6-67.1-149.8-149.6-149.8z" fill="" p-id="5035"></path><path d="M493.1 895H128.4v-25c0-104.5 37.3-202.9 104.9-277.1 33.1-36.3 71.7-64.8 114.7-84.7 44.7-20.7 92.2-31.2 141.2-31.2v50c-82.6 0-160.4 35.4-219 99.6-53.8 59-85.7 135.7-91 218.4h314v50z" fill="" p-id="5036"></path><path d="M695.8 848.5c-78 0-141.4-63.5-141.4-141.4 0-78 63.5-141.4 141.4-141.4 78 0 141.4 63.5 141.4 141.4 0.1 78-63.4 141.4-141.4 141.4z m0-252.9c-61.5 0-111.4 50-111.4 111.4 0 61.5 50 111.4 111.4 111.4 61.4 0 111.4-50 111.4-111.4 0.1-61.4-49.9-111.4-111.4-111.4z" fill="" p-id="5037"></path><path d="M695.8 707.1m-50.2 0a50.2 50.2 0 1 0 100.4 0 50.2 50.2 0 1 0-100.4 0Z" fill="" p-id="5038"></path><path d="M612.1 792.7l-41.4 71.8 50.2 29 41.2-71.4c-19.1-5.7-36.1-15.9-50-29.4zM778.5 620.4l42.6-73.7-50.2-29-42.7 74c19.1 5.4 36.3 15.4 50.3 28.7zM729.6 822l41.2 71.4 50.2-29-41.5-71.8c-13.8 13.6-30.8 23.8-49.9 29.4zM815.6 707.1c0 9.4-1.1 18.6-3.2 27.5H896v-57.9h-84.3c2.5 9.7 3.9 19.9 3.9 30.4zM576 707.1c0-10.5 1.4-20.7 3.9-30.4h-84.3v57.9h83.5c-2-8.9-3.1-18.1-3.1-27.5zM663.5 591.7l-42.7-74-50.2 29 42.5 73.7c14.1-13.3 31.3-23.3 50.4-28.7z" fill="" p-id="5039"></path></svg>