<svg t="1686631801852" class="icon" viewBox="0 0 1024 1024" version="1.1" xmlns="http://www.w3.org/2000/svg" p-id="4288" width="200" height="200"><path d="M338.010559 190.848097l82.334008-127.980323a28.582272 28.582272 0 0 0-33.701485-42.660108L221.975067 88.89044a75.508391 75.508391 0 0 0-42.660108 51.192129L2.702113 810.699462a76.361593 76.361593 0 0 0 52.471933 93.425635L493.293351 1024l12.798033-45.646315a74.228587 74.228587 0 0 0 0-42.660108l-178.31925-682.561723a78.067997 78.067997 0 0 1 10.238425-62.283757z" p-id="4289"></path><path d="M1021.425484 821.79109L845.665841 148.187989a76.788194 76.788194 0 0 0-38.820698-48.632522L626.392887 7.836235a72.522183 72.522183 0 0 0-93.852237 25.596065L417.784961 206.205736a79.3478 79.3478 0 0 0-10.238426 62.710358l175.759644 673.6031a74.228587 74.228587 0 0 0 90.866029 54.178337l294.781344-81.054204a76.788194 76.788194 0 0 0 52.471932-93.852237z m-469.261184-617.71836a75.508391 75.508391 0 1 1 151.016781 0 75.508391 75.508391 0 1 1-151.016781 0z m393.752794 426.601077v81.907407h-46.926119s-3.412809 10.665027-5.545814 16.210841a85.320215 85.320215 0 0 1-5.972415 12.798032l31.56848 32.421682-55.45814 57.164544-31.141879-32.421682-12.798032 5.972416-16.210841 5.972415v45.646315h-81.480805v-41.380305l-17.064044-4.26601-12.371431-5.972415-31.568479 32.421681-55.45814-57.164544 31.568479-32.421682c-2.133005-4.266011-4.266011-8.532022-5.972415-12.798032-2.133005-5.545814-3.83941-10.665027-5.545814-16.210841h-42.660107v-86.600019h42.660107a147.603973 147.603973 0 0 1 12.798032-31.99508l-31.568479-32.421682 52.898533-55.45814 31.56848 32.421682a162.961611 162.961611 0 0 1 30.715278-13.224634v-47.77932h78.067997v46.072916a179.599053 179.599053 0 0 1 31.141878 13.224633l31.141879-32.421681 55.45814 57.164544-31.56848 32.421682a147.603973 147.603973 0 0 1 12.798032 31.99508z" p-id="4290"></path><path d="M853.34466 663.948691V654.563468v-7.252219-2.133005a31.995081 31.995081 0 0 0 0-6.825617 90.866029 90.866029 0 0 0-170.640431 0 31.995081 31.995081 0 0 0-2.133005 6.825617v11.518229a42.660108 42.660108 0 0 0 0 7.252218v15.78424a11.94483 11.94483 0 0 0 0 3.83941 21.330054 21.330054 0 0 0 0 5.119213v4.26601a93.852237 93.852237 0 0 0 65.696566 69.109375 85.320215 85.320215 0 0 0 47.352719 0 93.852237 93.852237 0 0 0 65.696566-69.109375 18.770447 18.770447 0 0 0 0-4.26601 21.330054 21.330054 0 0 0 0-5.119213A11.94483 11.94483 0 0 0 853.34466 682.719139a28.155671 28.155671 0 0 0 0-5.972415v-11.944831z" p-id="4291"></path></svg>